<svg width="32" height="32" viewBox="0 0 17 20" fill="none" xmlns="http://www.w3.org/2000/svg">
<path d="M11.9773 8.9172C11.8485 8.9172 11.7197 8.9172 11.7197 8.9172L11.2045 8.53503C11.2045 8.53503 11.0758 8.53503 11.0758 8.40764V8.28026V7.7707C11.0758 7.64331 11.0758 7.51592 11.2045 7.51592L16.7424 4.33121L8.88636 0.127388C8.75758 0.127388 8.62879 0 8.62879 0C8.5 0 8.37121 -1.23385e-07 8.37121 0.127388L0.515152 4.33121L9.27273 9.42675C9.40152 9.42675 9.40152 9.55414 9.40152 9.68153V17.0701C9.40152 17.1975 9.27273 17.3248 9.27273 17.3248L8.75758 17.5796H8.62879H8.5L7.98485 17.3248C7.85606 17.3248 7.85606 17.1975 7.85606 17.0701V10.4459C7.85606 10.4459 7.85606 10.3185 7.72727 10.3185L0 5.85987V14.6497C0 14.9045 0.128788 15.0318 0.257576 15.1592L8.24242 19.8726C8.37121 19.8726 8.5 20 8.5 20C8.62879 20 8.75758 20 8.75758 19.8726L16.7424 15.1592C16.8712 15.0318 17 14.7771 17 14.6497V5.85987L11.9773 8.9172Z" fill="url(#paint0_linear_3720_29257)"/>
<defs>
<linearGradient id="paint0_linear_3720_29257" x1="0.102644" y1="16.8558" x2="8.74221" y2="9.52666" gradientUnits="userSpaceOnUse">
<stop stop-color="#006DAF"/>
<stop offset="0.2384" stop-color="#007BBE"/>
<stop offset="0.71" stop-color="#0092D6"/>
<stop offset="1" stop-color="#009ADF"/>
</linearGradient>
</defs>
</svg>
