<?xml version="1.0" encoding="UTF-8"?>
<svg width="244px" height="186px" viewBox="0 0 244 186" version="1.1" xmlns="http://www.w3.org/2000/svg" xmlns:xlink="http://www.w3.org/1999/xlink">
    <!-- Generator: Sketch 55.2 (78181) - https://sketchapp.com -->
    <title>La_Poste_logo</title>
    <desc>Created with Sketch.</desc>
    <defs>
        <linearGradient x1="6.91730355%" y1="41.9611697%" x2="76.3355339%" y2="69.681272%" id="linearGradient-1">
            <stop stop-color="#F0E63C" offset="0%"></stop>
            <stop stop-color="#E6AF32" offset="100%"></stop>
        </linearGradient>
    </defs>
    <g id="Page-1" stroke="none" stroke-width="1" fill="none" fill-rule="evenodd">
        <g id="La_Poste_logo" fill-rule="nonzero">
            <path d="M83.03278,185.33289 C54.335527,184.05968 23.293437,172.64348 8.36701,146.56274 C-5.631625,121.92948 1.551467,90.86131 17.306779,68.871553 C42.297144,33.279484 83.29056,11.022732 125.52979,3.257343 C157.94935,-2.488565 194.45354,0.643802 220.93906,21.881388 C238.91317,36.01263 247.03153,60.40556 242.2159,82.61682 C235.10691,116.92252 208.26447,143.63711 178.9977,160.89085 C150.16708,177.69142 116.46956,186.90811 83.03278,185.33289 Z" id="path3722" fill="url(#linearGradient-1)"></path>
            <path d="M70.534,60.224 C75.924,62.158 93.462,68.324 103.244,74.965 C103.567,75.184 104.187,75.624 104.187,75.624 L177.063,74.483 C177.19,74.311 179.872,69.589 181.463,66.544 C183.204,63.205 183.322,60.344 181.349,58.444 C179.204,56.382 175.732,56.054 168.72,56.054 L70.923,56.054 C70.143,56.054 68.16,55.92 67.84,57.525 C67.7407344,58.0629339 67.9008192,58.6161899 68.272,59.018 C68.9281497,59.5814355 69.7004948,59.9932163 70.534,60.224 Z" id="path20" fill="#003DA5"></path>
            <path d="M217.083,78.519 C215.465,78.564 108.76,80.195 107.105,80.26 C106.217,80.295 105.958,80.498 105.953,81.455 C105.912,89.197 95.662,96.638 81.714,103.29 C67.001,110.308 48.53,117.29 38.93,120.825 C36.642,121.668 32.54,123.116 31.218,123.789 C30.163,124.325 29.432,125.155 29.767,126.118 C30.102,127.081 31.167,127.574 34.82,126.605 C36.453,126.171 38.291,125.723 40.315,125.196 C58.746,120.396 92.504,111.947 125.382,103.734 C159.427,95.234 192.991,87.878 217.596,83.443 C219.529,83.095 221.124,82.051 221.042,80.58 C220.966,79.206 219.368,78.455 217.083,78.519 Z" id="path22" fill="#003DA5"></path>
            <path d="M129.365,126.232 C129.371,126.232 134.165,126.359 137.665,124.261 C143.301,120.88 150.71,114.741 161.207,99.983 L48.717,127.623 L129.365,126.232 Z" id="path24" fill="#003DA5"></path>
        </g>
    </g>
</svg>