<svg width="738" height="316" viewBox="0 0 738 316" fill="none" xmlns="http://www.w3.org/2000/svg">
<g clip-path="url(#clip0_8795_18688)">
<path d="M375.66 134.81C375.193 128.646 372.98 120.742 372.457 119.181C371.081 115.06 367.741 111.575 363.234 109.837C358.735 108.098 349.689 105.563 349.689 105.563C348.119 105.08 346.695 105.982 346.518 107.736C346.308 109.748 347.693 111.921 349.447 112.461L353.254 113.62C352.103 113.845 351.306 114.972 351.403 116.565C351.515 118.416 352.9 120.179 354.477 120.662L357.383 121.547C356.513 121.941 355.942 122.931 355.998 124.251C356.071 126.135 357.463 127.953 359.073 128.444L363.306 129.74C365.294 130.344 367.193 131.768 368.65 133.748C369.415 134.786 370.397 135.575 371.435 135.994L373.672 137C375.097 137.563 375.789 136.493 375.66 134.81Z" fill="#D0D7DF"/>
<path d="M367.992 150.319L355.171 154.335C354.1 154.665 353.022 153.869 353.022 152.758V128.75C353.022 128.074 353.449 127.47 354.092 127.253L367.815 122.521C367.903 122.489 368 122.553 368 122.65V150.327L367.992 150.319Z" fill="#FF8B43"/>
<path d="M353.012 139.768V144.042L354.557 143.567L354.944 141.997C354.944 141.997 354.622 140.267 354.622 139.036L353.02 139.768H353.012Z" fill="#97420B"/>
<path d="M362.203 136.67C362.203 139.156 363.04 138.545 363.04 140.726L367.974 139.229V134.915L362.203 136.67Z" fill="#97420B"/>
<path d="M391.096 153.989L368.086 150.36C368.022 150.352 367.974 150.295 367.974 150.223V122.65C367.974 122.569 368.046 122.505 368.127 122.513L391.482 125.909C392.199 126.014 392.722 126.626 392.722 127.342V152.589C392.722 153.45 391.949 154.11 391.096 153.973V153.989Z" fill="#F6BCAE"/>
<path d="M392.649 143.084V138.81L379.901 136.798L379.306 124.195L375.032 123.519L375.644 136.476L371.459 136.766L368.859 135.052L367.974 134.923V139.221L375.837 140.452L376.36 151.623L367.982 150.311L354.437 154.36L376.923 157.708C377.197 157.748 377.471 157.732 377.736 157.659L391.49 153.989L380.633 152.283L380.11 141.112L392.657 143.076L392.649 143.084Z" fill="#EC5A13"/>
<path d="M349.159 136.959C345.408 137.112 342.986 138.979 340.636 140.782C338.116 142.722 335.726 144.549 331.718 144.315C331.275 144.299 330.913 144.621 330.881 145.056C330.857 145.49 331.187 145.861 331.622 145.893C331.895 145.909 332.169 145.917 332.426 145.917C336.547 145.917 339.106 143.945 341.585 142.038C343.839 140.307 345.963 138.674 349.215 138.545C349.65 138.529 349.988 138.159 349.971 137.724C349.955 137.289 349.593 136.935 349.151 136.967L349.159 136.959Z" fill="#EAEDF1"/>
<path d="M339.485 147.011C337.046 147.696 335.815 148.388 334.825 148.951C333.449 149.732 332.531 150.247 328.901 150.247C328.861 150.247 328.821 150.247 328.789 150.247C328.354 150.247 328 150.601 328 151.036C328 151.47 328.354 151.824 328.789 151.824H328.893C332.95 151.824 334.125 151.164 335.598 150.327C336.563 149.78 337.65 149.168 339.911 148.533C340.33 148.412 340.571 147.977 340.459 147.559C340.338 147.14 339.903 146.899 339.485 147.011Z" fill="#EAEDF1"/>
<path d="M381.318 113.676C380.063 109.467 376.884 105.941 372.538 104.243C368.2 102.545 359.451 100.115 359.451 100.115C357.93 99.6558 356.53 100.605 356.321 102.416C356.079 104.493 357.375 106.698 359.073 107.213L362.751 108.332C361.632 108.589 360.836 109.764 360.9 111.406C360.972 113.314 362.284 115.1 363.805 115.567L366.614 116.42C365.761 116.847 365.19 117.877 365.214 119.229C365.246 121.161 366.566 123.012 368.119 123.487L372.208 124.734C374.123 125.322 375.942 126.746 377.318 128.75C378.043 129.804 378.976 130.593 379.982 131.004L382.139 132.002C383.515 132.557 384.208 131.438 384.111 129.708C383.781 123.374 381.785 115.277 381.31 113.684L381.318 113.676Z" fill="#EAEDF1"/>
<path d="M373.019 111.954C373.204 111.954 373.374 111.849 373.454 111.672C373.559 111.43 373.454 111.149 373.213 111.044C373.164 111.02 368.537 108.992 363.82 107.833C363.563 107.769 363.305 107.93 363.241 108.179C363.176 108.437 363.337 108.694 363.587 108.758C368.215 109.901 372.77 111.897 372.818 111.921C372.883 111.946 372.947 111.962 373.011 111.962L373.019 111.954Z" fill="#D0D7DF"/>
<path d="M374.429 118.891C374.276 118.811 370.727 117 368.208 116.614C367.942 116.573 367.701 116.75 367.66 117.008C367.62 117.266 367.797 117.515 368.055 117.555C370.421 117.925 373.954 119.72 373.986 119.744C374.059 119.777 374.131 119.801 374.204 119.801C374.373 119.801 374.542 119.704 374.63 119.543C374.751 119.31 374.654 119.02 374.421 118.899L374.429 118.891Z" fill="#D0D7DF"/>
<path d="M381.73 151.696L390.687 149.941C390.937 149.893 391.146 149.627 391.162 149.345L391.404 145.056C391.42 144.774 391.234 144.589 390.985 144.637L382.027 146.392C381.778 146.44 381.569 146.706 381.552 146.987L381.311 151.277C381.295 151.559 381.48 151.744 381.73 151.696Z" fill="#FFE9DE"/>
<path d="M0 312.17C0.701497 292.672 14.5576 268.711 34.943 265.597C58.0624 262.057 65.9767 256.178 73.2075 247.281C81.3977 237.19 79.509 219.534 103.606 203.881C131.786 185.595 146.175 197.72 165.218 186.111C194.207 168.455 197.984 141.284 246.759 141.002C297.579 140.708 306.398 170.345 329.086 183.598C350.377 196.022 369.191 188.997 399.668 210.079C426.139 228.365 427.428 249.339 441.26 258.638C456.009 268.549 466.442 257.882 491.024 275.658C513.712 292.054 514.341 313.346 514.341 313.346L0 312.17Z" fill="#F6F8F9"/>
<path d="M644.01 297.767C670.51 297.767 691.992 276.209 691.992 249.617C691.992 223.024 670.51 201.466 644.01 201.466C617.51 201.466 596.028 223.024 596.028 249.617C596.028 276.209 617.51 297.767 644.01 297.767Z" fill="#F6F8F9"/>
<path d="M690.981 263.932C693.025 259.564 694.146 254.822 694.146 249.881C694.146 245.316 693.179 240.926 691.42 236.824C686.673 219.112 672.32 205.326 654.34 201.444C651.043 200.231 647.592 199.57 644.01 199.57C640.427 199.57 636.954 200.231 633.679 201.444C615.7 205.326 601.347 219.112 596.599 236.824C594.841 240.926 593.874 245.316 593.874 249.881C593.874 254.822 594.995 259.564 597.039 263.932C601.874 279.879 614.579 292.429 630.602 296.995C634.778 299.046 639.306 300.193 644.032 300.193C648.757 300.193 653.263 299.068 657.461 296.995C673.485 292.429 686.189 279.879 691.025 263.932H690.981ZM656.802 294.833C655.791 295.12 654.78 295.407 653.747 295.627C655.659 293.708 657.439 291.238 659.022 288.282C662.429 287.422 665.66 286.275 668.715 284.886C665.308 289.165 661.286 292.562 656.824 294.833H656.802ZM619.326 284.886C622.381 286.275 625.613 287.422 629.019 288.282C630.602 291.238 632.36 293.708 634.295 295.627C633.261 295.407 632.25 295.12 631.239 294.833C626.777 292.562 622.755 289.165 619.348 284.886H619.326ZM649.395 296.311C648.933 296.355 648.45 296.399 647.966 296.444C648.801 294.701 649.527 292.451 650.142 289.804C652.164 289.606 654.142 289.319 656.099 288.922C654.098 292.253 651.835 294.789 649.395 296.311ZM631.943 288.922C633.877 289.319 635.877 289.606 637.899 289.804C638.537 292.451 639.262 294.723 640.075 296.444C639.592 296.399 639.13 296.355 638.647 296.311C636.207 294.789 633.943 292.253 631.943 288.922ZM639.833 202.768C640.009 202.768 640.185 202.768 640.339 202.746C639.394 204.532 638.581 207.003 637.877 209.936C635.855 210.135 633.877 210.422 631.921 210.819C634.251 206.937 636.932 204.157 639.812 202.768H639.833ZM656.099 210.819C654.164 210.422 652.164 210.135 650.142 209.936C649.439 207.003 648.625 204.532 647.68 202.746C647.856 202.746 648.032 202.746 648.186 202.768C651.087 204.157 653.769 206.937 656.077 210.819H656.099ZM644.01 296.642C643.504 296.642 643.021 296.576 642.515 296.576C641.746 295.275 640.954 293.069 640.207 289.981C641.46 290.047 642.735 290.113 644.01 290.113C645.284 290.113 646.559 290.069 647.812 289.981C647.065 293.047 646.274 295.252 645.504 296.576C644.999 296.576 644.515 296.642 644.01 296.642ZM644.01 287.863C642.559 287.863 641.108 287.797 639.68 287.709C638.91 284.048 638.207 279.46 637.679 274.078C639.746 274.21 641.856 274.276 644.01 274.276C646.164 274.276 648.274 274.21 650.34 274.078C649.79 279.46 649.109 284.026 648.34 287.709C646.911 287.819 645.482 287.863 644.01 287.863ZM644.01 272.027C641.79 272.027 639.614 271.96 637.482 271.806C637.174 268.321 636.91 264.549 636.756 260.491C639.152 260.557 641.592 260.601 644.01 260.601C646.427 260.601 648.845 260.557 651.263 260.491C651.109 264.549 650.845 268.321 650.538 271.806C648.406 271.938 646.23 272.027 644.01 272.027ZM644.01 258.373C641.482 258.373 639.064 258.329 636.69 258.263C636.602 255.572 636.558 252.793 636.558 249.881C636.558 246.97 636.602 244.191 636.69 241.5C639.064 241.434 641.482 241.389 644.01 241.389C646.537 241.389 648.955 241.434 651.329 241.5C651.417 244.191 651.461 246.97 651.461 249.881C651.461 252.793 651.417 255.572 651.329 258.263C648.955 258.329 646.559 258.373 644.01 258.373ZM597.127 249.595C597.127 249.154 597.171 248.734 597.193 248.293C598.665 247.168 601.61 245.999 605.897 244.941C605.787 246.551 605.721 248.205 605.721 249.859C605.721 251.514 605.787 253.146 605.897 254.778C601.632 253.741 598.687 252.572 597.214 251.447C597.193 250.83 597.127 250.212 597.127 249.595ZM607.941 249.859C607.941 248.029 608.029 246.22 608.182 244.433C611.809 243.661 616.205 242.978 621.26 242.448C621.107 244.852 621.019 247.323 621.019 249.859C621.019 252.396 621.107 254.844 621.26 257.27C616.183 256.741 611.809 256.057 608.182 255.285C608.029 253.499 607.941 251.69 607.941 249.859ZM623.239 249.859C623.239 247.257 623.327 244.72 623.502 242.228C626.887 241.919 630.536 241.676 634.448 241.544C634.361 244.433 634.317 247.235 634.317 249.859C634.317 252.484 634.361 255.307 634.448 258.175C630.536 258.02 626.887 257.8 623.502 257.491C623.327 254.999 623.239 252.462 623.239 249.859ZM643.988 227.692C646.208 227.692 648.384 227.758 650.516 227.913C650.823 231.398 651.065 235.169 651.241 239.228C648.845 239.162 646.405 239.118 643.988 239.118C641.57 239.118 639.152 239.162 636.734 239.228C636.888 235.169 637.152 231.398 637.46 227.913C639.592 227.78 641.768 227.692 643.988 227.692ZM637.657 225.641C638.207 220.259 638.888 215.693 639.658 212.01C641.086 211.899 642.515 211.855 643.988 211.855C645.46 211.855 646.889 211.921 648.318 212.01C649.087 215.671 649.79 220.259 650.318 225.641C648.252 225.509 646.142 225.442 643.988 225.442C641.834 225.442 639.724 225.509 637.657 225.641ZM653.527 241.522C657.439 241.676 661.088 241.897 664.473 242.206C664.649 244.698 664.737 247.235 664.737 249.837C664.737 252.44 664.649 254.977 664.473 257.469C661.088 257.778 657.439 258.02 653.527 258.153C653.615 255.263 653.659 252.462 653.659 249.837C653.659 247.213 653.615 244.389 653.527 241.522ZM666.715 242.448C671.792 242.978 676.166 243.661 679.793 244.433C679.947 246.22 680.035 248.029 680.035 249.859C680.035 251.69 679.947 253.499 679.793 255.285C676.166 256.057 671.77 256.741 666.715 257.27C666.869 254.866 666.957 252.396 666.957 249.859C666.957 247.323 666.869 244.874 666.715 242.448ZM682.079 244.941C686.387 245.999 689.31 247.168 690.783 248.293C690.783 248.734 690.849 249.154 690.849 249.595C690.849 250.212 690.783 250.83 690.761 251.447C689.288 252.572 686.343 253.719 682.079 254.778C682.189 253.168 682.255 251.514 682.255 249.859C682.255 248.205 682.189 246.573 682.079 244.941ZM690.651 245.646C688.519 244.455 685.508 243.441 681.859 242.581C681.595 240.198 681.2 237.882 680.694 235.633C685.42 238.235 688.871 241.367 690.607 244.786C690.629 245.073 690.607 245.382 690.651 245.669V245.646ZM679.551 242.073C675.705 241.279 671.287 240.64 666.539 240.176C666.231 236.625 665.77 233.206 665.154 229.986C669.99 231.089 674.342 232.567 678.1 234.309C678.738 236.802 679.243 239.404 679.573 242.073H679.551ZM664.275 239.956C660.78 239.647 657.132 239.426 653.439 239.294C653.285 235.589 653.065 231.773 652.736 228.067C656.23 228.376 659.571 228.839 662.759 229.457C663.44 232.765 663.945 236.294 664.275 239.956ZM652.538 225.795C652.076 220.899 651.439 216.223 650.626 212.23C652.977 212.495 655.263 212.892 657.505 213.399C659.44 217.237 661.044 221.869 662.275 227.075C659.176 226.501 655.945 226.082 652.56 225.795H652.538ZM645.131 202.591C646.01 203.76 646.911 206.209 647.768 209.738C646.515 209.672 645.241 209.605 643.966 209.605C642.691 209.605 641.416 209.65 640.163 209.738C641.02 206.209 641.944 203.782 642.801 202.591C643.196 202.591 643.57 202.525 643.966 202.525C644.361 202.525 644.735 202.569 645.131 202.591ZM637.328 212.208C636.515 216.223 635.877 220.877 635.416 225.773C632.053 226.038 628.8 226.479 625.7 227.053C626.909 221.847 628.536 217.215 630.47 213.377C632.69 212.848 634.998 212.473 637.35 212.208H637.328ZM635.196 228.045C634.888 231.751 634.646 235.566 634.492 239.272C630.778 239.404 627.129 239.647 623.656 239.934C623.986 236.272 624.514 232.743 625.173 229.435C628.36 228.795 631.701 228.332 635.196 228.045ZM621.392 240.154C616.645 240.64 612.227 241.257 608.38 242.051C608.71 239.382 609.194 236.78 609.853 234.287C613.59 232.523 617.964 231.067 622.777 229.964C622.162 233.184 621.7 236.603 621.392 240.154ZM606.072 242.559C602.424 243.419 599.39 244.455 597.28 245.624C597.302 245.338 597.28 245.029 597.324 244.742C599.061 241.323 602.512 238.213 607.237 235.589C606.732 237.838 606.336 240.154 606.072 242.536V242.559ZM597.302 254.05C599.434 255.219 602.424 256.256 606.072 257.116C606.336 259.498 606.732 261.814 607.237 264.064C602.622 261.505 599.215 258.484 597.434 255.153C597.39 254.778 597.324 254.425 597.302 254.05ZM608.38 257.623C612.227 258.417 616.645 259.057 621.392 259.52C621.7 263.071 622.162 266.49 622.777 269.711C617.942 268.608 613.59 267.13 609.853 265.387C609.216 262.895 608.71 260.292 608.38 257.623ZM623.656 259.741C627.151 260.05 630.8 260.27 634.492 260.403C634.646 264.108 634.866 267.924 635.196 271.63C631.701 271.321 628.36 270.858 625.173 270.24C624.492 266.931 623.986 263.402 623.656 259.741ZM635.394 273.901C635.855 278.798 636.493 283.474 637.306 287.466C634.954 287.202 632.668 286.805 630.426 286.297C628.492 282.459 626.887 277.828 625.656 272.622C628.756 273.196 631.987 273.615 635.372 273.901H635.394ZM650.604 287.466C651.417 283.452 652.054 278.798 652.516 273.901C655.879 273.637 659.132 273.196 662.231 272.622C661.022 277.828 659.396 282.459 657.461 286.297C655.241 286.827 652.934 287.202 650.582 287.466H650.604ZM652.736 271.63C653.043 267.924 653.285 264.108 653.439 260.403C657.154 260.27 660.802 260.028 664.275 259.741C663.945 263.402 663.418 266.931 662.759 270.24C659.571 270.88 656.23 271.343 652.736 271.63ZM666.539 259.52C671.287 259.035 675.705 258.417 679.551 257.623C679.221 260.292 678.738 262.895 678.078 265.387C674.342 267.152 669.968 268.608 665.132 269.711C665.748 266.49 666.209 263.071 666.517 259.52H666.539ZM681.859 257.116C685.508 256.256 688.497 255.241 690.629 254.05C690.585 254.425 690.541 254.778 690.497 255.153C688.717 258.484 685.31 261.505 680.694 264.064C681.2 261.814 681.595 259.498 681.859 257.116ZM689.816 239.801C687.398 237.133 684.057 234.75 679.969 232.699C678.826 228.596 677.309 224.737 675.441 221.207C681.595 225.464 686.365 230.957 689.156 237.177C689.398 238.037 689.64 238.897 689.816 239.779V239.801ZM677.287 231.464C673.551 229.854 669.287 228.53 664.649 227.538C663.55 222.531 662.077 217.987 660.297 214.105C664.275 215.252 668.012 216.818 671.419 218.715C673.836 222.509 675.815 226.788 677.287 231.464ZM658.978 211.436C657.22 208.128 655.197 205.415 653.021 203.407C653.285 203.452 653.549 203.518 653.813 203.562C659.44 205.701 664.517 209.605 668.671 214.811C665.616 213.421 662.385 212.274 658.978 211.414V211.436ZM634.954 203.407C632.756 205.415 630.756 208.128 628.997 211.436C625.591 212.296 622.359 213.443 619.304 214.833C623.458 209.628 628.536 205.723 634.163 203.584C634.426 203.518 634.69 203.474 634.954 203.43V203.407ZM627.657 214.105C625.876 217.987 624.404 222.509 623.305 227.538C618.667 228.53 614.403 229.854 610.666 231.464C612.117 226.81 614.095 222.509 616.535 218.715C619.942 216.818 623.678 215.252 627.657 214.105ZM607.985 232.699C603.896 234.728 600.555 237.133 598.138 239.801C598.335 238.919 598.577 238.059 598.797 237.199C601.588 230.979 606.358 225.486 612.513 221.229C610.644 224.759 609.106 228.619 607.985 232.721V232.699ZM598.335 260.094C600.731 262.674 604.006 264.99 607.985 266.976C609.128 271.078 610.644 274.938 612.513 278.467C606.578 274.365 601.94 269.137 599.127 263.182C598.819 262.167 598.577 261.13 598.335 260.094ZM610.666 268.211C614.403 269.821 618.667 271.144 623.305 272.137C624.404 277.144 625.876 281.687 627.657 285.569C623.678 284.423 619.942 282.856 616.535 280.96C614.117 277.166 612.139 272.887 610.688 268.211H610.666ZM660.319 285.569C662.099 281.687 663.55 277.166 664.671 272.137C669.309 271.144 673.573 269.821 677.309 268.211C675.859 272.865 673.88 277.166 671.463 280.96C668.056 282.856 664.319 284.423 660.341 285.569H660.319ZM679.991 266.976C683.969 264.99 687.244 262.674 689.64 260.094C689.398 261.13 689.156 262.167 688.849 263.182C686.035 269.115 681.375 274.365 675.463 278.467C677.331 274.938 678.87 271.078 679.991 266.976ZM684.804 226.501C681.551 222.84 677.551 219.641 673.001 217.039C670.517 213.245 667.616 209.936 664.363 207.267C672.957 211.458 680.101 218.186 684.804 226.501ZM623.612 207.267C620.381 209.958 617.48 213.245 614.974 217.039C610.424 219.641 606.424 222.84 603.171 226.501C607.853 218.186 614.996 211.458 623.612 207.267ZM604.138 274.232C607.193 277.453 610.864 280.276 614.974 282.636C617.106 285.878 619.524 288.746 622.206 291.194C614.776 287.268 608.556 281.379 604.138 274.232ZM665.77 291.194C668.451 288.746 670.869 285.878 673.001 282.636C677.111 280.276 680.782 277.453 683.837 274.232C679.441 281.379 673.199 287.246 665.77 291.194Z" fill="#EAEDF1"/>
<path d="M459.313 254.778C459.444 252.286 462.478 245.404 455.576 240.927C453.356 239.493 450.653 240.111 449.07 241.037C441.531 245.515 443.509 252.352 443.245 254.845C442.674 260.425 437.618 262.057 437.091 268.829C436.651 274.608 439.816 276.88 439.619 279.659C439.311 283.695 434.959 286.077 434.695 292.231C434.431 298.517 438.981 300.194 439.882 301.098C444.652 305.818 443.553 313.494 443.553 313.494H451.664C451.664 313.494 451.927 305.267 454.873 301.98C456.587 300.061 461.664 299.4 462.192 292.209C462.654 286.033 458.851 283.629 459.159 279.593C459.379 276.813 462.873 274.564 463.313 268.785C463.818 262.013 459.027 260.337 459.291 254.756L459.313 254.778Z" fill="#EAEDF1"/>
<path d="M607.545 244.588C608.336 234.155 600.929 231.553 601.347 222.95C601.545 219.112 606.226 208.481 595.588 201.599C592.159 199.372 588.005 200.342 585.565 201.776C573.916 208.702 576.971 219.223 576.575 223.061C575.696 231.641 567.893 234.177 567.102 244.61C566.421 253.521 571.3 257.028 570.993 261.329C570.531 267.572 563.805 271.211 563.388 280.717C562.97 290.4 569.981 293.003 571.41 294.393C578.751 301.672 577.059 313.494 577.059 313.494H589.566C589.566 313.494 589.983 300.811 594.511 295.738C597.171 292.761 604.973 291.768 605.809 280.673C606.534 271.145 600.665 267.439 601.149 261.219C601.479 256.918 606.886 253.455 607.567 244.566L607.545 244.588Z" fill="#EAEDF1"/>
<path d="M277.847 313.493H378.603L387.593 198.952L291.255 203.054L277.847 313.493Z" fill="#EAEDF1"/>
<path d="M524.33 169.704L524.835 155.764L487.799 161.389L479.139 313.493H518.483H519.033H558.377L561.937 162.227L524.879 155.764L524.33 169.704Z" fill="#EAEDF1"/>
<path d="M699.576 184.107L685.86 184.019C685.86 184.019 664.364 282.459 629.592 312.721L735.491 313.559C691.289 282.459 699.576 184.107 699.576 184.107Z" fill="#EAEDF1"/>
<path d="M542.177 312.963H551.255L550.486 297.81H542.639L542.177 312.963Z" fill="#EAEDF1"/>
<path d="M546.154 184.46L555.188 185.386L554.418 170.101L546.615 169.307L546.154 184.46Z" fill="#EAEDF1"/>
<path d="M530.351 182.85L539.385 183.776L538.616 168.49L530.813 167.696L530.351 182.85Z" fill="#ACB8C7"/>
<path d="M545.516 204.951L554.55 205.877L553.781 190.592L545.978 189.798L545.516 204.951Z" fill="#EAEDF1"/>
<path d="M529.713 203.362L538.747 204.267L537.978 189.003L530.175 188.209L529.713 203.362Z" fill="#EAEDF1"/>
<path d="M529.055 224.626L538.089 225.53L537.32 210.267L529.517 209.473L529.055 224.626Z" fill="#EAEDF1"/>
<path d="M544.22 246.726L553.276 247.653L552.507 232.367L544.704 231.573L544.22 246.726Z" fill="#EAEDF1"/>
<path d="M528.417 245.116L537.451 246.043L536.704 230.757L528.879 229.963L528.417 245.116Z" fill="#EAEDF1"/>
<path d="M543.913 267.835L552.946 268.761L552.177 253.476L544.374 252.682L543.913 267.835Z" fill="#EAEDF1"/>
<path d="M528.438 267.394L537.494 268.32L536.725 253.035L528.922 252.241L528.438 267.394Z" fill="#ACB8C7"/>
<path d="M546.352 225.905L555.386 226.831L554.638 211.546L546.814 210.752L546.352 225.905Z" fill="#ACB8C7"/>
<path d="M527.823 287.885L536.857 288.812L536.088 273.526L528.285 272.732L527.823 287.885Z" fill="#EAEDF1"/>
<path d="M377.746 313.493H439.487L445.004 203.65L387.681 198.951L377.746 313.493Z" fill="#D0D7DF"/>
<path d="M612.974 228.838C610.38 227.162 607.237 227.89 605.391 228.971C596.577 234.198 598.885 242.161 598.599 245.072C597.94 251.579 592.027 253.476 591.434 261.372C590.928 268.1 594.621 270.769 594.379 274.011C594.027 278.731 588.928 281.488 588.62 288.679C588.29 296.002 593.61 297.965 594.687 299.024C600.248 304.516 598.973 313.471 598.973 313.471H608.446C608.446 313.471 608.754 303.876 612.183 300.038C614.183 297.788 620.095 297.038 620.733 288.635C621.282 281.422 616.842 278.621 617.216 273.923C617.458 270.68 621.546 268.056 622.074 261.328C622.667 253.432 617.062 251.469 617.392 244.962C617.524 242.051 621.084 234.022 613.04 228.794L612.974 228.838Z" fill="#D0D7DF"/>
<path d="M673.683 312.963H682.738V297.81H674.914L673.683 312.963Z" fill="#D0D7DF"/>
<path d="M487.689 312.963H496.745L497.316 297.81H489.491L487.689 312.963Z" fill="#D0D7DF"/>
<path d="M518.131 167.696L510.262 168.49L508.438 183.776L517.56 182.85L518.131 167.696Z" fill="#D0D7DF"/>
<path d="M501.426 189.798L493.557 190.592L491.754 205.877L500.854 204.951L501.426 189.798Z" fill="#D0D7DF"/>
<path d="M517.34 188.209L509.493 189.003L507.668 204.267L516.768 203.362L517.34 188.209Z" fill="#D0D7DF"/>
<path d="M516.549 209.473L508.68 210.267L506.855 225.53L515.955 224.626L516.549 209.473Z" fill="#D0D7DF"/>
<path d="M490.172 247.653L499.272 246.726L499.843 231.573L491.974 232.367L490.172 247.653Z" fill="#D0D7DF"/>
<path d="M489.029 268.761L498.128 267.835L498.7 252.682L490.853 253.476L489.029 268.761Z" fill="#D0D7DF"/>
<path d="M514.197 252.241L506.328 253.035L504.525 268.32L513.625 267.394L514.197 252.241Z" fill="#D0D7DF"/>
<path d="M344.512 312.963H353.568L354.645 297.81H346.82L344.512 312.963Z" fill="#D0D7DF"/>
<path d="M366.535 225.53L375.656 224.626L376.733 209.473L368.843 210.267L366.535 225.53Z" fill="#D0D7DF"/>
<path d="M349.106 247.653L358.25 246.726L359.305 231.573L351.414 232.367L349.106 247.653Z" fill="#D0D7DF"/>
<path d="M347.282 265.828L356.425 264.901L357.502 249.748L349.612 250.542L347.282 265.828Z" fill="#D0D7DF"/>
<path d="M362.8 265.828L371.921 264.901L372.998 249.748L365.108 250.542L362.8 265.828Z" fill="#D0D7DF"/>
<path d="M290.089 241.631L299.057 242.558L299.452 227.272L291.715 226.478L290.089 241.631Z" fill="#D0D7DF"/>
<path d="M284.177 304.648L293.145 305.574L293.54 290.289L285.781 289.495L284.177 304.648Z" fill="#D0D7DF"/>
<path d="M305.894 283.805L314.861 284.709L315.279 269.446L307.52 268.651L305.894 283.805Z" fill="#D0D7DF"/>
<path d="M326.686 304.648L335.653 305.574L336.049 290.289L328.312 289.495L326.686 304.648Z" fill="#D0D7DF"/>
<path d="M673.374 271.342H666.231V281.974H673.374V271.342Z" fill="#D0D7DF"/>
<path d="M687.464 214.722H680.321V225.353H687.464V214.722Z" fill="#D0D7DF"/>
<path d="M697.576 247.851H690.432V258.483H697.576V247.851Z" fill="#D0D7DF"/>
<path d="M683.023 247.851H675.88V258.483H683.023V247.851Z" fill="#D0D7DF"/>
<path d="M389.68 264.902L398.648 265.828L399.066 250.542L391.307 249.748L389.68 264.902Z" fill="#ACB8C7"/>
<path d="M412.165 226.324L421.133 227.251L421.528 211.965L413.77 211.171L412.165 226.324Z" fill="#ACB8C7"/>
<path d="M424.034 267.99L433.002 268.894L433.398 253.631L425.661 252.837L424.034 267.99Z" fill="#ACB8C7"/>
<path d="M365.085 246.044L374.207 245.117L375.284 229.964L367.393 230.758L365.085 246.044Z" fill="#F6F8F9"/>
<path d="M349.083 226.832L358.226 225.905L359.281 210.752L351.39 211.546L349.083 226.832Z" fill="#F6F8F9"/>
<path d="M361.348 285.636L370.492 284.71L371.547 269.557L363.656 270.351L361.348 285.636Z" fill="#F6F8F9"/>
<path d="M292.288 220.788L301.255 221.715L301.651 206.429L293.914 205.635L292.288 220.788Z" fill="#F6F8F9"/>
<path d="M286.089 283.805L295.079 284.71L295.474 269.446L287.715 268.652L286.089 283.805Z" fill="#F6F8F9"/>
<path d="M288.726 262.476L297.694 263.402L298.111 248.117L290.353 247.323L288.726 262.476Z" fill="#F6F8F9"/>
<path d="M312.091 220.788L321.059 221.715L321.455 206.429L313.718 205.635L312.091 220.788Z" fill="#F6F8F9"/>
<path d="M309.894 241.632L318.861 242.558L319.257 227.273L311.52 226.479L309.894 241.632Z" fill="#F6F8F9"/>
<path d="M303.98 304.648L312.948 305.575L313.343 290.289L305.585 289.495L303.98 304.648Z" fill="#F6F8F9"/>
<path d="M308.53 262.476L317.498 263.402L317.915 248.117L310.156 247.323L308.53 262.476Z" fill="#F6F8F9"/>
<path d="M334.796 220.788L343.764 221.715L344.16 206.429L336.423 205.635L334.796 220.788Z" fill="#F6F8F9"/>
<path d="M332.599 241.632L341.567 242.558L341.985 227.273L334.226 226.479L332.599 241.632Z" fill="#F6F8F9"/>
<path d="M328.598 283.805L337.587 284.71L337.983 269.446L330.224 268.652L328.598 283.805Z" fill="#F6F8F9"/>
<path d="M331.235 262.476L340.203 263.402L340.62 248.117L332.861 247.323L331.235 262.476Z" fill="#F6F8F9"/>
<path d="M688.167 279.504H681.023V290.135H688.167V279.504Z" fill="#F6F8F9"/>
<path d="M701.728 265.916H694.585V276.548H701.728V265.916Z" fill="#F6F8F9"/>
<path d="M492.523 185.387L501.623 184.461L502.217 169.307L494.348 170.102L492.523 185.387Z" fill="#F6F8F9"/>
<path d="M506.085 246.044L515.185 245.117L515.756 229.964L507.887 230.758L506.085 246.044Z" fill="#F6F8F9"/>
<path d="M489.469 226.832L498.569 225.905L499.14 210.752L491.294 211.546L489.469 226.832Z" fill="#F6F8F9"/>
<path d="M503.734 288.812L512.834 287.886L513.428 272.733L505.559 273.527L503.734 288.812Z" fill="#F6F8F9"/>
<path d="M401.352 313.383H410.43L410.803 298.23H402.979L401.352 313.383Z" fill="#F6F8F9"/>
<path d="M402.911 210.687L395.174 209.893L393.548 225.046L402.516 225.972L402.911 210.687Z" fill="#F6F8F9"/>
<path d="M417.815 232.787L410.056 231.993L408.43 247.147L417.419 248.073L417.815 232.787Z" fill="#F6F8F9"/>
<path d="M391.35 245.536L400.318 246.463L400.736 231.177L392.977 230.383L391.35 245.536Z" fill="#F6F8F9"/>
<path d="M415.881 252.087L408.144 251.293L406.517 266.446L415.485 267.372L415.881 252.087Z" fill="#F6F8F9"/>
<path d="M387.504 288.304L396.472 289.231L396.867 273.945L389.108 273.151L387.504 288.304Z" fill="#F6F8F9"/>
<path d="M414.055 313.383H423.133L423.529 298.23H415.682L414.055 313.383Z" fill="#F6F8F9"/>
<path d="M427.881 227.979L436.849 228.906L437.266 213.62L429.507 212.826L427.881 227.979Z" fill="#F6F8F9"/>
<path d="M425.706 248.073L434.674 248.977L435.069 233.714L427.311 232.92L425.706 248.073Z" fill="#F6F8F9"/>
<path d="M421.837 288.304L430.805 289.231L431.2 273.945L423.463 273.151L421.837 288.304Z" fill="#F6F8F9"/>
<path d="M697.026 222.862H689.882V233.493H697.026V222.862Z" fill="#F6F8F9"/>
<path d="M694.079 197.143H686.936V207.775H694.079V197.143Z" fill="#F6F8F9"/>
<g clip-path="url(#clip1_8795_18688)">
<path d="M643.248 40.2048C641.265 36.3875 634.431 32.9889 624.457 30.4399C626.218 35.2054 627.178 40.3279 627.178 45.6597C627.178 47.7408 627.018 49.7849 626.735 51.792C626.957 51.2748 629.062 46.731 634.025 44.2683C639.147 41.7193 640.896 42.6059 643.814 42.8645C643.814 42.7414 643.851 42.6182 643.851 42.5074C643.851 41.7317 643.63 40.9559 643.248 40.2048Z" fill="#4183D7"/>
<path d="M541.597 29.2454C538.888 29.7995 536.364 30.4152 534.024 31.0801C532.411 35.6608 531.524 40.5617 531.524 45.6596C531.524 47.4451 531.648 49.206 531.857 50.9422C531.882 51.0161 531.906 51.0654 531.906 51.0654C534.48 49.7355 539.935 49.5508 545.747 51.0654C552.273 52.7647 553.578 55.7692 553.578 55.7692C553.578 55.7692 553.652 55.7569 553.751 55.7323C553.32 52.4322 553.073 48.9966 553.073 45.4626C553.073 38.9363 553.862 32.7302 555.29 27.1028C550.377 27.6692 545.784 28.3834 541.609 29.2454H541.597Z" fill="#4183D7"/>
<path d="M591.861 25.9945C588.155 25.8098 584.325 25.7236 580.421 25.7236C580.064 25.7236 579.707 25.7359 579.35 25.7359C579.276 31.6589 579.227 38.2713 579.227 45.2533C579.227 49.3291 579.239 53.2695 579.276 57.0252C580.04 56.742 585.101 54.9319 590.396 54.4516C597.698 53.7867 604.766 56.2741 604.766 56.2741C604.766 56.2741 604.852 56.1632 605.012 55.9785C605.468 52.5923 605.726 49.0705 605.726 45.4503C605.726 38.8255 604.914 32.5455 603.448 26.8565C599.742 26.4748 595.863 26.1792 591.861 25.9822V25.9945Z" fill="#4183D7"/>
<path d="M575.397 85.9253L626.709 51.7915L626.475 51.4344L576.912 84.4107L605.529 55.4487L605.221 55.1409L578.205 82.5021L618.668 33.4564L618.335 33.1855L575.533 85.0879L579.461 56.9756L579.03 56.9141L575.052 85.3588L573.796 83.3271L567.775 31.4492L567.344 31.4985L573.267 82.4651L542.766 33.0131L542.396 33.2347L573.378 83.4256L573.452 84.1152L532.151 50.7572C532.053 50.6833 531.917 50.6956 531.843 50.7941C531.77 50.8926 531.782 51.0281 531.88 51.102L573.525 84.7309L574.991 97.3894L575.422 97.3401L574.006 85.1126L574.818 85.7652L574.966 85.9992L574.892 86.5287L575.126 86.2454L575.988 87.6369L577.552 96.4166L577.971 96.3427L576.407 87.5261L575.409 85.9253H575.397ZM573.92 84.4969L573.895 84.2876L574.129 84.657L573.92 84.4969Z" fill="#336699"/>
<path d="M517.609 40.2047C517.215 40.9558 517.005 41.7193 517.005 42.5073C517.005 42.6797 517.03 42.8398 517.055 42.9999C520.01 43.1354 520.835 42.9753 525.194 45.0563C530.39 47.5437 531.634 50.3266 531.856 50.93C531.646 49.1937 531.523 47.4329 531.523 45.6474C531.523 40.5495 532.41 35.6486 534.023 31.0679C525.354 33.5306 519.431 36.6829 517.621 40.1924L517.609 40.2047Z" fill="#336699"/>
<path d="M624.444 30.4395C622.498 29.947 620.429 29.4667 618.25 29.0481C613.743 28.1615 608.768 27.435 603.449 26.8809C604.902 32.5575 605.727 38.8498 605.727 45.4746C605.727 49.0949 605.481 52.6166 605.013 56.0029C605.862 55.0671 609.002 52.1241 615.996 50.8188C622.547 49.5874 626.709 51.8655 626.709 51.8655C626.709 51.8655 626.709 51.8408 626.734 51.8162C627.017 49.8091 627.177 47.765 627.177 45.684C627.177 40.3398 626.217 35.2296 624.456 30.4642L624.444 30.4395Z" fill="#336699"/>
<path d="M567.246 26.093C563.084 26.3269 559.095 26.6717 555.278 27.115C553.861 32.7301 553.061 38.9362 553.061 45.4748C553.061 49.0089 553.295 52.4444 553.738 55.7445C554.711 55.5475 560.141 54.4762 564.537 54.4762C572.11 54.4762 579.166 57.0867 579.166 57.0867C579.166 57.0867 579.215 57.0744 579.277 57.0498C579.252 53.2941 579.228 49.3537 579.228 45.2778C579.228 38.2959 579.277 31.6834 579.351 25.7605C575.201 25.7851 571.15 25.896 567.234 26.1176L567.246 26.093Z" fill="#336699"/>
<path d="M573.503 133.74L555.389 139.416C553.887 139.884 552.348 138.764 552.348 137.188V103.276C552.348 102.315 552.951 101.465 553.862 101.158L573.244 94.4713C573.367 94.422 573.503 94.5205 573.503 94.656V133.752V133.74Z" fill="#FF8B43"/>
<path d="M552.348 118.852V124.886L554.527 124.221L555.069 122.005C555.069 122.005 554.613 119.567 554.613 117.83L552.348 118.865V118.852Z" fill="#97420B"/>
<path d="M565.328 114.469C565.328 117.978 566.51 117.116 566.51 120.195L573.479 118.089V111.994L565.328 114.469Z" fill="#97420B"/>
<path d="M606.134 138.924L573.626 133.801C573.54 133.789 573.466 133.703 573.466 133.617V94.6681C573.466 94.5573 573.564 94.4588 573.687 94.4834L606.676 99.2858C607.686 99.4336 608.437 100.296 608.437 101.318V136.978C608.437 138.197 607.353 139.133 606.147 138.936L606.134 138.924Z" fill="#F6BCAE"/>
<path d="M608.336 123.532V117.498L590.321 114.653L589.484 96.8477L583.45 95.8995L584.312 114.198L578.401 114.604L574.732 112.191L573.476 112.006V118.077L584.583 119.813L585.322 135.611L573.5 133.752L554.365 139.453L584.706 143.344C585.494 143.443 586.294 143.406 587.082 143.246L606.711 138.973L591.368 136.56L590.629 120.761L608.348 123.532H608.336Z" fill="#EC5A13"/>
<path d="M606.453 113.853L592.206 112.708C592.009 112.696 591.836 112.499 591.836 112.277L591.59 100.394C591.59 100.172 591.75 100.012 591.947 100.025L606.194 101.17C606.391 101.182 606.563 101.379 606.563 101.601L606.81 113.484C606.81 113.705 606.65 113.865 606.453 113.853Z" fill="white"/>
<path d="M602.993 104.137L594.57 103.46C594.312 103.435 594.103 103.657 594.103 103.94C594.103 104.224 594.324 104.47 594.583 104.507L603.005 105.184C603.264 105.209 603.473 104.987 603.473 104.704C603.473 104.408 603.252 104.15 602.993 104.137Z" fill="#3A4757"/>
<path d="M600.849 106.514L594.631 106.009C594.372 105.985 594.163 106.206 594.163 106.49C594.163 106.773 594.384 107.019 594.643 107.056L600.861 107.561C601.12 107.585 601.329 107.364 601.329 107.081C601.329 106.785 601.083 106.539 600.849 106.514Z" fill="#3A4757"/>
<path d="M598.277 108.866L594.694 108.583C594.435 108.558 594.226 108.78 594.226 109.063C594.226 109.346 594.448 109.592 594.706 109.629L598.29 109.913C598.548 109.937 598.758 109.716 598.758 109.432C598.758 109.137 598.536 108.903 598.277 108.866Z" fill="#3A4757"/>
<path d="M603.954 101.995C604.114 102.007 604.237 101.872 604.237 101.699L604.2 100.123C604.2 99.9508 604.065 99.7907 603.905 99.7784L594.091 98.9903C593.931 98.978 593.808 99.1134 593.808 99.2858L593.845 100.862C593.845 101.034 593.98 101.194 594.14 101.207L603.954 101.995Z" fill="#FF8B43"/>
<path d="M604.349 112.905C604.349 112.757 604.238 112.634 604.103 112.622L594.19 111.821C594.055 111.821 593.956 111.92 593.956 112.067L593.993 113.742C593.993 113.89 594.104 114.013 594.239 114.025L604.152 114.826C604.287 114.826 604.386 114.727 604.386 114.579L604.349 112.905Z" fill="#FF8B43"/>
<path d="M596.492 141.19L586.025 139.958L583.501 139.133L589.19 136.547L588.217 96.774V96.6631L575.078 86.6767L575.571 86.2457L643.9 42.8397C643.999 42.7781 644.036 42.6427 643.962 42.5442C643.9 42.4457 643.765 42.4087 643.666 42.4826L575.312 85.9009L574.721 86.4181L574.266 86.0733L593.512 31.2278L593.143 30.8831L573.909 85.7901L517.352 42.7289C517.253 42.655 517.118 42.6796 517.044 42.7658C516.97 42.8643 516.994 42.9998 517.081 43.0737L573.749 86.2211L573.231 87.711L560.548 98.7688C560.548 98.7688 560.474 98.8673 560.474 98.9412L561.644 137.335C561.644 137.446 561.73 137.533 561.829 137.545L580.533 139.749L574.315 142.027L575.263 142.15L581.482 139.872L585.915 140.389L591.628 142.249L592.49 142.064L588.082 140.636L595.175 141.473L596.467 141.19H596.492ZM574.13 86.492L574.401 86.7013L573.896 87.1323L574.118 86.492H574.13ZM562.1 137.126L560.93 99.0151L572.961 88.5238L570.301 96.109L569.894 134.663C569.894 134.848 570.005 135.021 570.19 135.07L582.184 139.133L581.457 139.404L562.087 137.114L562.1 137.126ZM583.87 139.7L582.417 139.527L582.861 139.367L583.883 139.7H583.87ZM587.799 96.8848L588.771 136.252L582.848 138.924L570.338 134.688L570.732 96.2322L573.625 87.9696L574.758 86.9845L587.799 96.8971V96.8848Z" fill="#336699"/>
<path d="M619.457 32.8408C614.863 15.0474 600.715 1.71164 583.537 0.0616003C582.934 0.0369728 582.318 0.036972 581.715 0.0246582C587.441 1.41611 592.206 13.9638 593.967 30.9814C596.639 29.393 600.961 28.3709 605.801 28.7403C612.869 29.2821 619.444 32.8408 619.444 32.8408H619.457Z" fill="#FFE9DE"/>
<path d="M540.526 32.496C541.278 32.7054 541.967 32.964 542.521 33.3087C544.676 30.9076 549.503 29.0482 555.217 28.7403C560.228 28.4571 564.686 29.4422 567.333 31.1415C569.07 14.0254 573.86 1.4038 579.61 0.0246582C578.059 0.0492857 576.519 0.110855 574.993 0.221679C558.554 2.41353 545.095 15.343 540.539 32.496H540.526Z" fill="#FFE9DE"/>
<path d="M517.005 42.3715V42.4331C517.904 39.2808 522.448 35.8329 528.371 33.6903C533.026 32.0033 537.508 31.6709 540.525 32.4836C545.081 15.3305 558.54 2.40108 574.979 0.209229C542.593 2.63504 517.005 25.3785 517.005 42.3715Z" fill="#EC5A13"/>
<path d="M583.538 0.0615234C600.716 1.71157 614.852 15.0351 619.457 32.8407C622.425 31.5971 627.424 31.8187 632.645 33.7027C638.568 35.833 642.927 39.4532 643.826 42.5932H643.974C643.974 25.1446 617.179 1.39141 583.538 0.0615234Z" fill="#EC5A13"/>
<path d="M581.716 0.0246269C581.334 0.0246269 580.952 0 580.57 0C580.238 0 579.918 0.0123131 579.598 0.0246269C573.847 1.40377 569.057 14.0254 567.321 31.1415C567.37 31.1784 567.444 31.2031 567.493 31.24C569.747 28.9127 574.721 27.2996 580.509 27.2996C586.296 27.2996 591.271 28.925 593.524 31.24C593.66 31.1415 593.832 31.0676 593.98 30.9814C592.232 13.9638 587.466 1.4284 581.728 0.0246269H581.716Z" fill="#EC5A13"/>
</g>
</g>
<defs>
<clipPath id="clip0_8795_18688">
<rect width="738" height="316" fill="white"/>
</clipPath>
<clipPath id="clip1_8795_18688">
<rect width="127.001" height="143.399" fill="white" transform="translate(517)"/>
</clipPath>
</defs>
</svg>
