<svg width="159" height="56" viewBox="0 0 159 56" fill="none" xmlns="http://www.w3.org/2000/svg">
<path d="M-12.5534 49.1725C-12.6709 37.8001 -6.95303 27.0634 2.70718 21.4676C19.2278 11.8947 39.959 21.1707 47.8715 34.2954C56.813 49.1231 64.4363 48.0172 83.8617 43.3275C103.287 38.6378 124.786 53.6109 128.782 75.2309C128.782 75.2309 153.503 72.4381 157.471 93.7413C158.398 98.2801 158.162 102.986 156.786 107.402C153.622 117.211 144.54 123.672 134.479 123.853L19.5422 125.911C15.4443 125.984 11.3721 125.226 7.56021 123.681C3.74836 122.136 0.272363 119.833 -2.66741 116.906C-5.60718 113.98 -7.95258 110.487 -9.56833 106.629C-11.1841 102.77 -12.0382 98.6236 -12.0816 94.4273L-12.5534 49.1725Z" fill="url(#paint0_linear_7437_182783)"/>
<mask id="mask0_7437_182783" style="mask-type:alpha" maskUnits="userSpaceOnUse" x="-13" y="0" width="171" height="109">
<path d="M-12.7326 32.1377C-12.8501 20.7653 -7.13223 10.0286 2.52798 4.43276C19.0486 -5.14014 39.7798 4.13586 47.6923 17.2606C56.6338 32.0883 64.2571 30.9824 83.6825 26.2927C103.108 21.603 124.607 36.5761 128.603 58.1961C128.603 58.1961 153.324 55.4033 157.292 76.7065C158.218 81.2453 157.982 85.9513 156.607 90.3671C153.443 100.177 144.361 106.638 134.299 106.818L19.363 108.876C15.2651 108.949 11.1929 108.192 7.38101 106.646C3.56916 105.101 0.0931637 102.798 -2.84661 99.8717C-5.78638 96.9449 -8.13178 93.4518 -9.74753 89.5937C-11.3633 85.7356 -12.2174 81.5889 -12.2608 77.3925L-12.7326 32.1377Z" fill="url(#paint1_linear_7437_182783)"/>
</mask>
<g mask="url(#mask0_7437_182783)">
<path d="M104.561 102.299L104.69 102.4C106.931 104.331 108.826 106.632 110.29 109.203C111.147 110.618 112.1 111.972 113.143 113.256C114.067 114.362 115.258 115.213 116.604 115.729C117.949 116.244 119.404 116.408 120.83 116.203L121.14 118.334C119.353 118.591 117.53 118.388 115.844 117.743C114.158 117.098 112.664 116.033 111.505 114.648C110.409 113.282 109.41 111.84 108.515 110.334C107.116 108.131 105.801 106.048 103.364 104.039L103.258 103.955C101.251 102.375 98.0495 101.841 94.9514 101.325C91.6581 100.781 88.2636 100.195 85.9883 98.3577C84.3955 97.2029 83.1825 95.0376 81.8207 92.5565C80.0105 89.2798 77.9419 85.5739 74.4481 82.9673C71.222 80.5714 68.7122 80.4555 65.8099 80.3104C62.7048 80.1592 59.1884 79.9911 54.7204 76.6716C49.9438 73.1361 48.5301 69.1602 47.3853 65.956C46.6815 63.993 46.1272 62.4367 44.9957 61.4645C43.0152 59.7695 40.473 59.3391 37.5347 58.8496C33.6844 58.2108 29.3247 57.4962 24.9273 53.7084C21.2797 50.5743 19.5222 46.5534 17.9847 43.0219C16.8216 40.2999 15.7936 37.9913 14.2494 36.9469L14.1657 36.8811C11.6608 34.728 7.89464 34.3723 4.27038 34.02C1.32158 33.739 -1.45868 33.4732 -3.63329 32.3118C-7.78047 30.0305 -9.8284 26.4131 -11.4963 23.4833C-12.5967 21.5422 -13.5498 19.8615 -14.8061 19.0709C-17.1016 17.6156 -19.7492 17.3189 -22.5776 16.9882C-26.4919 16.5339 -30.9353 16.0061 -35.364 12.3383C-39.987 9.03212 -41.2761 5.38007 -42.5299 1.8552C-43.5379 -1.00656 -44.4846 -3.69365 -47.3014 -6.17355L-47.5189 -6.34477L-46.2415 -8.04813C-46.1179 -7.9644 -46.0006 -7.87196 -45.8902 -7.77152C-42.6895 -4.95321 -41.5721 -1.8518 -40.5188 1.13596C-39.3295 4.50171 -38.2093 7.6685 -34.0655 10.6425C-30.0299 13.9376 -26.11 14.3963 -22.3133 14.8393C-19.2453 15.187 -16.3504 15.525 -13.645 17.2399C-11.9398 18.3207 -10.8147 20.2993 -9.62001 22.396C-8.01501 25.2221 -6.22098 28.4048 -2.5813 30.4129C-0.808247 31.3846 1.7624 31.6297 4.48168 31.8926C8.23344 32.255 12.4698 32.6558 15.5133 35.2149C17.5314 36.6325 18.6389 39.1842 19.9704 42.1743C21.4299 45.518 23.0936 49.3024 26.3652 52.1224C30.284 55.4971 34.1865 56.1499 37.9393 56.775C41.0529 57.2941 43.9956 57.7781 46.4468 59.8617C48.0012 61.2031 48.7106 63.1705 49.4375 65.2419C50.537 68.3202 51.815 71.8372 56.042 74.9579C59.9839 77.8902 62.8906 78.0297 65.9602 78.1802C69.0299 78.3306 72.0574 78.4658 75.7698 81.2536C79.669 84.1253 81.9114 88.23 83.7329 91.5155C84.9956 93.8012 86.1019 95.7922 87.3043 96.6397L87.4549 96.7582C89.2893 98.2027 92.2356 98.7165 95.3301 99.2026C98.6226 99.7813 102.125 100.381 104.561 102.299Z" fill="url(#paint2_linear_7437_182783)"/>
<path d="M99.9187 107.084L100.047 107.185C102.289 109.116 104.183 111.417 105.648 113.988C106.504 115.403 107.457 116.757 108.5 118.04C109.424 119.146 110.616 119.997 111.961 120.513C113.307 121.029 114.762 121.192 116.188 120.987L116.497 123.118C114.711 123.376 112.888 123.172 111.201 122.527C109.515 121.882 108.022 120.817 106.862 119.433C105.766 118.066 104.767 116.625 103.873 115.119C102.473 112.915 101.159 110.833 98.7214 108.823L98.6155 108.74C96.6082 107.159 93.4069 106.625 90.3088 106.109C87.0155 105.566 83.621 104.979 81.3457 103.142C79.7529 101.987 78.5399 99.8222 77.1782 97.3411C75.3679 94.0643 73.2993 90.3584 69.8055 87.7518C66.5794 85.356 64.0696 85.24 61.1673 85.095C58.0622 84.9437 54.5458 84.7757 50.0778 81.4561C45.3012 77.9206 43.8876 73.9448 42.7427 70.7405C42.0389 68.7775 41.4846 67.2212 40.3532 66.249C38.3727 64.5541 35.8305 64.1236 32.8922 63.6341C29.0418 62.9954 24.6822 62.2807 20.2847 58.4929C16.6371 55.3588 14.8796 51.338 13.3421 47.8064C12.179 45.0844 11.151 42.7759 9.60681 41.7315L9.52317 41.6656C7.01818 39.5125 3.25206 39.1569 -0.372195 38.8045C-3.321 38.5235 -6.10126 38.2578 -8.27587 37.0963C-12.4231 34.8151 -14.471 31.1977 -16.1389 28.2678C-17.2393 26.3267 -18.1924 24.646 -19.4487 23.8555C-21.7442 22.4001 -24.3917 22.1035 -27.2202 21.7727C-31.1345 21.3184 -35.5779 20.7907 -40.0066 17.1228C-44.6296 13.8167 -45.9187 10.1646 -47.1725 6.63974C-48.1805 3.77799 -49.1272 1.09089 -51.944 -1.389L-52.1614 -1.56023L-50.884 -3.26358C-50.7605 -3.17985 -50.6431 -3.08742 -50.5328 -2.98698C-47.3321 -0.168663 -46.2147 2.93274 -45.1614 5.9205C-43.972 9.28626 -42.8519 12.453 -38.708 15.427C-34.6724 18.7222 -30.7526 19.1809 -26.9558 19.6238C-23.8879 19.9716 -20.9929 20.3095 -18.2876 22.0244C-16.5824 23.1053 -15.4573 25.0839 -14.2626 27.1806C-12.6576 30.0067 -10.8636 33.1894 -7.22388 35.1974C-5.45083 36.1691 -2.88018 36.4143 -0.160894 36.6771C3.59086 37.0395 7.8272 37.4404 10.8707 39.9994C12.8889 41.417 13.9963 43.9688 15.3278 46.9588C16.7874 50.3026 18.451 54.087 21.7226 56.9069C25.6414 60.2817 29.544 60.9344 33.2967 61.5595C36.4103 62.0787 39.353 62.5626 41.8042 64.6463C43.3586 65.9876 44.068 67.955 44.7949 70.0265C45.8944 73.1048 47.1725 76.6217 51.3995 79.7425C55.3413 82.6748 58.248 82.8143 61.3177 82.9647C64.3873 83.1151 67.4148 83.2504 71.1272 86.0382C75.0264 88.9098 77.2688 93.0145 79.0903 96.3001C80.353 98.5858 81.4593 100.577 82.6618 101.424L82.8123 101.543C84.6468 102.987 87.593 103.501 90.6875 103.987C93.98 104.566 97.4821 105.165 99.9187 107.084Z" fill="url(#paint3_linear_7437_182783)"/>
<path d="M95.2322 112.59L95.3605 112.691C97.6022 114.623 99.4965 116.924 100.961 119.495C101.818 120.909 102.771 122.263 103.814 123.547C104.738 124.653 105.929 125.504 107.275 126.02C108.62 126.536 110.075 126.699 111.501 126.494L111.811 128.625C110.024 128.882 108.201 128.679 106.515 128.034C104.829 127.389 103.335 126.324 102.176 124.939C101.08 123.573 100.081 122.131 99.186 120.625C97.7865 118.422 96.4723 116.339 94.0349 114.33L93.929 114.246C91.9217 112.666 88.7204 112.132 85.6223 111.616C82.329 111.072 78.9345 110.486 76.6592 108.649C75.0664 107.494 73.8534 105.329 72.4916 102.848C70.6814 99.5709 68.6128 95.865 65.119 93.2584C61.8929 90.8626 59.3831 90.7466 56.4808 90.6016C53.3757 90.4503 49.8593 90.2822 45.3913 86.9627C40.6147 83.4272 39.201 79.4514 38.0562 76.2471C37.3524 74.2841 36.7981 72.7278 35.6666 71.7556C33.6861 70.0607 31.1439 69.6302 28.2056 69.1407C24.3553 68.502 19.9956 67.7873 15.5982 63.9995C11.9506 60.8654 10.1931 56.8446 8.65561 53.313C7.49248 50.591 6.46452 48.2825 4.92029 47.2381L4.83665 47.1722C2.33165 45.0191 -1.43446 44.6635 -5.05872 44.3111C-8.00753 44.0301 -10.7878 43.7644 -12.9624 42.6029C-17.1096 40.3217 -19.1575 36.7043 -20.8254 33.7744C-21.9258 31.8333 -22.8789 30.1526 -24.1352 29.3621C-26.4307 27.9067 -29.0783 27.6101 -31.9067 27.2793C-35.821 26.825 -40.2644 26.2972 -44.6931 22.6294C-49.3161 19.3233 -50.6052 15.6712 -51.859 12.1463C-52.867 9.28458 -53.8137 6.59748 -56.6305 4.11759L-56.848 3.94637L-55.5706 2.24301C-55.447 2.32674 -55.3297 2.41918 -55.2193 2.51962C-52.0186 5.33793 -50.9012 8.43933 -49.8479 11.4271C-48.6586 14.7929 -47.5384 17.9596 -43.3946 20.9336C-39.359 24.2288 -35.4391 24.6874 -31.6424 25.1304C-28.5744 25.4782 -25.6795 25.8161 -22.9741 27.531C-21.2689 28.6118 -20.1438 30.5905 -18.9491 32.6871C-17.3441 35.5133 -15.5501 38.6959 -11.9104 40.704C-10.1373 41.6757 -7.5667 41.9209 -4.84742 42.1837C-1.09566 42.5461 3.14068 42.947 6.18415 45.506C8.20233 46.9236 9.3098 49.4754 10.6413 52.4654C12.1008 55.8092 13.7645 59.5935 17.0361 62.4135C20.9549 65.7883 24.8574 66.441 28.6102 67.0661C31.7238 67.5853 34.6665 68.0692 37.1177 70.1529C38.6721 71.4942 39.3815 73.4616 40.1084 75.5331C41.2079 78.6114 42.4859 82.1283 46.7129 85.2491C50.6548 88.1814 53.5615 88.3209 56.6311 88.4713C59.7008 88.6217 62.7282 88.757 66.4407 91.5448C70.3399 94.4164 72.5823 98.5211 74.4038 101.807C75.6665 104.092 76.7728 106.083 77.9752 106.931L78.1258 107.049C79.9602 108.494 82.9065 109.008 86.001 109.494C89.2935 110.072 92.7956 110.672 95.2322 112.59Z" fill="url(#paint4_linear_7437_182783)"/>
</g>
<defs>
<linearGradient id="paint0_linear_7437_182783" x1="41.3604" y1="17.0969" x2="158.464" y2="123.423" gradientUnits="userSpaceOnUse">
<stop stop-color="#FFC2B0"/>
<stop offset="1" stop-color="#FB8863"/>
</linearGradient>
<linearGradient id="paint1_linear_7437_182783" x1="41.1812" y1="0.0621577" x2="158.285" y2="106.388" gradientUnits="userSpaceOnUse">
<stop stop-color="#FFC2B0"/>
<stop offset="1" stop-color="#FB8863"/>
</linearGradient>
<linearGradient id="paint2_linear_7437_182783" x1="44.0156" y1="63.1404" x2="78.7724" y2="85.6559" gradientUnits="userSpaceOnUse">
<stop stop-color="#FFD2C5"/>
<stop offset="1" stop-color="#F08D70"/>
</linearGradient>
<linearGradient id="paint3_linear_7437_182783" x1="39.373" y1="67.9249" x2="74.1299" y2="90.4405" gradientUnits="userSpaceOnUse">
<stop stop-color="#FFD2C5"/>
<stop offset="1" stop-color="#F08D70"/>
</linearGradient>
<linearGradient id="paint4_linear_7437_182783" x1="34.6865" y1="73.4315" x2="69.4433" y2="95.9471" gradientUnits="userSpaceOnUse">
<stop stop-color="#FFD2C5"/>
<stop offset="1" stop-color="#F08D70"/>
</linearGradient>
</defs>
</svg>
