<svg width="106" height="82" viewBox="0 0 106 82" fill="none" xmlns="http://www.w3.org/2000/svg">
<circle cx="52.4999" cy="47.6008" r="31.7551" fill="white"/>
<path d="M30.1153 38.7606C27.6426 38.5358 23.7089 37.8615 22.6973 36.9623C21.5734 35.8384 21.5734 32.017 21.461 29.432C21.461 29.3196 21.2362 29.3196 21.2362 29.432C21.0114 32.017 20.4495 35.9508 19.3255 36.9623C18.314 37.9738 15.0546 38.5358 12.2448 38.7606C12.02 38.7606 12.02 39.0978 12.2448 39.0978C15.0546 39.3226 18.4264 39.8845 19.4379 40.8961C20.4495 41.9076 21.0114 45.5042 21.2362 48.2016C21.2362 48.4264 21.461 48.4264 21.461 48.2016C21.6858 45.5042 22.023 41.5704 23.0345 40.5589C24.0461 39.5473 27.5302 39.3226 29.8905 39.0978C30.2277 38.9854 30.2277 38.7606 30.1153 38.7606Z" fill="#F4BF48"/>
<path d="M64.5334 72.3633C67.3432 72.5881 70.715 73.1501 71.7265 74.1616C72.7381 75.1731 73.3001 78.7697 73.5248 81.4672C73.5248 81.6919 73.7496 81.6919 73.7496 81.4672C73.9744 78.7697 74.3116 74.836 75.3231 73.8244C76.3347 72.8129 79.8189 72.5881 82.1791 72.3633C82.2915 72.3633 82.2915 72.1385 82.1791 72.1385C79.7065 71.9137 75.7727 71.2394 74.7612 70.3402C73.6372 69.2163 73.6372 65.3949 73.5248 62.8099C73.5248 62.6975 73.3001 62.6975 73.3001 62.8099C73.0753 65.3949 72.5133 69.3287 71.3894 70.3402C70.3778 71.3518 67.1184 71.9137 64.3086 72.1385C64.3086 72.0261 64.3086 72.2509 64.5334 72.3633Z" fill="#F4BF48"/>
<path d="M75.6049 36.022C75.6105 36.3591 76.06 36.3517 76.1668 36.0128C76.4209 30.9502 76.9733 23.5222 78.9629 21.4661C80.842 19.5243 87.4649 18.9659 91.9545 18.5549C92.2916 18.5494 92.2842 18.0999 91.9452 17.993C87.3322 17.7316 79.7807 16.5067 77.9531 14.7382C75.8971 12.7486 75.779 5.55643 75.473 0.615486C75.4693 0.39073 75.1322 0.396268 75.1359 0.621024C74.7676 5.57305 73.9885 12.8924 71.8866 14.9503C69.897 17.0063 63.7328 18.1192 58.4566 18.5431C58.1194 18.5487 58.1287 19.1106 58.4676 19.2174C63.8692 19.5783 70.179 20.4863 72.1208 22.3654C73.9502 24.2463 75.1866 31.0829 75.6049 36.022Z" fill="#F4BF48"/>
<path d="M52.3594 36.5562V59.226" stroke="#4D4E7B" stroke-width="4.61785" stroke-linecap="round"/>
<path d="M64.668 47.8911H40.3792" stroke="#4D4E7B" stroke-width="4.61785" stroke-linecap="round"/>
</svg>
